<svg width="16" height="24" viewBox="0 0 16 24" fill="none" xmlns="http://www.w3.org/2000/svg">
<g clip-path="url(#clip0)">
<path d="M8.83561 6.13081L12.0176 8.583C12.9748 9.32071 13.6655 9.85358 14.1561 10.3081C14.6458 10.7618 14.8834 11.0912 14.989 11.4037C15.2009 12.0312 15.1553 12.7172 14.8619 13.311C14.7158 13.6068 14.4367 13.9018 13.8911 14.2866C13.3446 14.672 12.5894 15.1086 11.5428 15.7128L8.89349 17.2424C7.84687 17.8467 7.09117 18.2824 6.48412 18.563C5.8781 18.8431 5.4831 18.9374 5.15384 18.916C4.49292 18.8731 3.87603 18.5697 3.4386 18.0724C3.22069 17.8246 3.05423 17.4542 2.90617 16.8032C2.75786 16.1511 2.64171 15.2865 2.48146 14.0887L1.94877 10.1069C1.70523 8.28648 1.52756 6.95479 1.48307 5.96061C1.43782 4.9496 1.53981 4.40583 1.74923 4.08275C2.18533 3.40999 2.91762 2.9872 3.7183 2.94591C4.1028 2.92609 4.62471 3.10965 5.47765 3.65434C6.3164 4.18996 7.38083 5.00967 8.83561 6.13081Z" stroke="#FF165C"/>
<path d="M10.468 16.9107L13.1176 21.5" stroke="#FF165C" stroke-linecap="round"/>
</g>
<defs>
<clipPath id="clip0">
<rect width="16" height="24" fill="white"/>
</clipPath>
</defs>
</svg>
