<svg width="18" height="24" viewBox="0 0 18 24" fill="none" xmlns="http://www.w3.org/2000/svg">
<path d="M1 17.2V6.8C1 5.11984 1 4.27976 1.32698 3.63803C1.6146 3.07354 2.07354 2.6146 2.63803 2.32698C3.27976 2 4.11984 2 5.8 2H10L17 9V17.2C17 18.8802 17 19.7202 16.673 20.362C16.3854 20.9265 15.9265 21.3854 15.362 21.673C14.7202 22 13.8802 22 12.2 22H5.8C4.11984 22 3.27976 22 2.63803 21.673C2.07354 21.3854 1.6146 20.9265 1.32698 20.362C1 19.7202 1 18.8802 1 17.2Z" stroke="#FF165C"/>
<path d="M10 2V6C10 7.65685 11.3431 9 13 9H17" stroke="#FF165C"/>
<path d="M5 18H13" stroke="#FF165C" stroke-linecap="round"/>
<path d="M5 14.5H13" stroke="#FF165C" stroke-linecap="round"/>
</svg>
