<svg width="832" height="296" viewBox="0 0 832 296" fill="none" xmlns="http://www.w3.org/2000/svg">
<path d="M720 236H752V259.2C752 263.68 752 265.921 752.872 267.632C753.639 269.137 754.863 270.361 756.368 271.128C758.079 272 760.32 272 764.8 272H788V296H777.6C757.438 296 747.357 296 739.656 292.076C732.883 288.625 727.375 283.117 723.924 276.344C720 268.643 720 258.562 720 238.4V236Z" fill="black"/>
<path fill-rule="evenodd" clip-rule="evenodd" d="M736 252C789.019 252 832 209.019 832 156C832 102.981 789.019 60 736 60C682.981 60 640 102.981 640 156C640 209.019 682.981 252 736 252ZM800 156C800 193.555 771.346 224 736 224C700.654 224 672 193.555 672 156C672 118.445 700.654 88 736 88C771.346 88 800 118.445 800 156Z" fill="black"/>
<path d="M0 64H32V216H128V248H0V64Z" fill="black"/>
<path d="M304 64V170C304 215.287 275.287 252 222 252C168.713 252 140 215.287 140 170V64H172V168C172 196.719 186.617 220 222 220C257.383 220 272 196.719 272 168V64H304Z" fill="black"/>
<path d="M360 248H328V64H388L416 188H420L448 64H508V248H476V92H472L444 216H392L364 92H360V248Z" fill="black"/>
<path d="M532 64L600 64V220H636V248H532V220H568V92H532V64Z" fill="black"/>
<circle cx="584" cy="20" r="20" fill="#FF004D"/>
</svg>
