<svg width="872" height="296" viewBox="0 0 872 296" fill="none" xmlns="http://www.w3.org/2000/svg">
<path d="M740 236H772V259.2C772 263.68 772 265.921 772.872 267.632C773.639 269.137 774.863 270.361 776.368 271.128C778.079 272 780.32 272 784.8 272H808V296H797.6C777.438 296 767.357 296 759.656 292.076C752.883 288.625 747.375 283.117 743.924 276.344C740 268.643 740 258.562 740 238.4V236Z" fill="#0C0B18"/>
<path fill-rule="evenodd" clip-rule="evenodd" d="M756 252C809.019 252 852 209.019 852 156C852 102.981 809.019 60 756 60C702.981 60 660 102.981 660 156C660 209.019 702.981 252 756 252ZM820 156C820 193.555 791.346 224 756 224C720.654 224 692 193.555 692 156C692 118.445 720.654 88 756 88C791.346 88 820 118.445 820 156Z" fill="#0C0B18"/>
<path d="M20 64H52V216H148V248H20V64Z" fill="#0C0B18"/>
<path d="M324 64V170C324 215.287 295.287 252 242 252C188.713 252 160 215.287 160 170V64H192V168C192 196.719 206.617 220 242 220C277.383 220 292 196.719 292 168V64H324Z" fill="#0C0B18"/>
<path d="M380 248H348V64H408L436 188H440L468 64H528V248H496V92H492L464 216H412L384 92H380V248Z" fill="#0C0B18"/>
<path d="M552 64L620 64V220H656V248H552V220H588V92H552V64Z" fill="#0C0B18"/>
<circle cx="604" cy="20" r="20" fill="#FF004D"/>
</svg>
