<svg width="444" height="162" viewBox="0 0 444 162" fill="none" xmlns="http://www.w3.org/2000/svg">
<path d="M75.8719 42.3681C75 44.0794 75 46.3196 75 50.8V90C75 115.405 95.5949 136 121 136C146.405 136 167 115.405 167 90V38H149V90C149 105.464 136.464 118 121 118C105.536 118 93 105.464 93 90V38H87.8C83.3196 38 81.0794 38 79.3681 38.8719C77.8628 39.6389 76.6389 40.8628 75.8719 42.3681Z" fill="black"/>
<path d="M12.8 38H18V116H62C66.4183 116 70 119.582 70 124V134H0V116V50.8C0 46.3196 0 44.0794 0.871948 42.3681C1.63893 40.8628 2.86278 39.6389 4.36808 38.8719C6.07937 38 8.31958 38 12.8 38Z" fill="black"/>
<path d="M193.8 38H199H207L231 91L255 38H263H281V134H263V68L239.727 116H231H222.273L199 68V134H181V50.8C181 46.3196 181 44.0794 181.872 42.3681C182.639 40.8628 183.863 39.6389 185.368 38.8719C187.079 38 189.32 38 193.8 38Z" fill="black"/>
<path d="M331 54V134H313V54H291V50.8C291 46.3196 291 44.0794 291.872 42.3681C292.639 40.8628 293.863 39.6389 295.368 38.8719C297.079 38 299.32 38 303.8 38L331 38V54Z" fill="black"/>
<path fill-rule="evenodd" clip-rule="evenodd" d="M394 36C421.614 36 444 58.3858 444 86C444 110.542 426.319 130.954 403 135.192V139.6C403 141.84 403 142.96 403.436 143.816C403.819 144.569 404.431 145.181 405.184 145.564C406.04 146 407.16 146 409.4 146H411.2C415.68 146 417.921 146 419.632 146.872C421.137 147.639 422.361 148.863 423.128 150.368C424 152.079 424 154.32 424 158.8V162H417C405.799 162 400.198 162 395.92 159.82C392.157 157.903 389.097 154.843 387.18 151.08C385.366 147.521 385.062 143.047 385.01 135.194C361.686 130.96 344 110.545 344 86C344 58.3858 366.386 36 394 36ZM394 120C411.673 120 426 104.778 426 86C426 67.2223 411.673 52 394 52C376.327 52 362 67.2223 362 86C362 104.778 376.327 120 394 120Z" fill="black"/>
<circle cx="322" cy="12" r="12" fill="#FF165C"/>
</svg>
