<svg width="816" height="280" viewBox="0 0 816 280" fill="none" xmlns="http://www.w3.org/2000/svg">
<g clip-path="url(#clip0)">
<path d="M704 208H736V243.2C736 247.68 736 249.921 736.872 251.632C737.639 253.137 738.863 254.361 740.368 255.128C742.079 256 744.32 256 748.8 256H772V280H761.6C741.438 280 731.357 280 723.656 276.076C716.883 272.625 711.375 267.117 707.924 260.344C704 252.643 704 242.562 704 222.4V208Z" fill="#0C0B18"/>
<path fill-rule="evenodd" clip-rule="evenodd" d="M164 48H132V154C132 199.287 160.713 236 214 236C267.287 236 296 199.287 296 154V48H264V152C264 180.719 249.383 204 214 204C178.617 204 164 180.719 164 152V48Z" fill="#0C0B18"/>
<path fill-rule="evenodd" clip-rule="evenodd" d="M720 236C773.019 236 816 193.019 816 140C816 86.9807 773.019 44 720 44C666.981 44 624 86.9807 624 140C624 193.019 666.981 236 720 236ZM784 140C784 177.555 755.346 208 720 208C684.654 208 656 177.555 656 140C656 102.445 684.654 72 720 72C755.346 72 784 102.445 784 140Z" fill="#0C0B18"/>
<path d="M1.39876e-06 48H32V200H128V232H32H1.39876e-06L0 200L1.39876e-06 48Z" fill="#0C0B18"/>
<path d="M316 48H348H352H376L404 176H408L436 48H460H464H496V232H464V76H460L432 204H408H404H380L352 76H348V232H316V48Z" fill="#0C0B18"/>
<path d="M552 48H584L620 48V76L584 76V204H620V232H584H552H516V204H552V76L516 76V48L552 48Z" fill="#0C0B18"/>
</g>
<defs>
<clipPath id="clip0">
<rect width="816" height="280" fill="white"/>
</clipPath>
</defs>
</svg>
