<svg width="852" height="284" viewBox="0 0 852 284" fill="none" xmlns="http://www.w3.org/2000/svg">
<path d="M0 50H28V208H136V234H0V50Z" fill="black"/>
<path d="M164 50H136V156C136 201.287 164.713 238 218 238C271.287 238 300 201.287 300 156V50H272V156C272 185.823 255.823 210 218 210C180.177 210 164 185.823 164 156V50Z" fill="black"/>
<path d="M368 50L412 182L456 50H504V234H476V76L432 208H392L348 76V234H320V50H368Z" fill="black"/>
<path d="M524 76L524 50L660 50V76L606 76V208H660V234H524L524 208H578V76L524 76Z" fill="black"/>
<path fill-rule="evenodd" clip-rule="evenodd" d="M852 142C852 190.264 816.384 230.209 770 236.986V238V240C770 249.428 770 254.142 772.929 257.071C775.858 260 780.572 260 790 260H808V284H788C778.705 284 774.057 284 770.208 283.147C756.549 280.118 745.881 269.451 742.853 255.792C742 251.943 742 247.295 742 238V236.986C695.616 230.209 660 190.264 660 142C660 88.9807 702.981 46 756 46C809.019 46 852 88.9807 852 142ZM756 212C793.555 212 824 180.66 824 142C824 103.34 793.555 72 756 72C718.445 72 688 103.34 688 142C688 180.66 718.445 212 756 212Z" fill="black"/>
</svg>
